<mxfile host="app.diagrams.net" modified="2024-02-12T16:59:28.294Z" agent="Mozilla/5.0 (Windows NT 10.0; Win64; x64) AppleWebKit/537.36 (KHTML, like Gecko) Chrome/121.0.0.0 Safari/537.36" version="23.1.2" etag="g08LAHmXfQCHN2hiP0kf" type="github">
  <diagram name="StrÃ¡nka-1" id="7CbdDmzlQFIFTmpJ_0-r">
    <mxGraphModel>
      <root>
        <mxCell id="0" />
        <mxCell id="1" parent="0" />
      </root>
    </mxGraphModel>
  </diagram>
</mxfile>
